<svg width="2500" height="1006" viewBox="0 0 2500 1006" fill="none" xmlns="http://www.w3.org/2000/svg">
<g clip-path="url(#clip0_702_22)">
<path d="M0.226562 0H2499.77V1006H0.226562V0Z" fill="#ED1D24"/>
<path d="M2115.48 234.438V80.4587H1687.01L1616.54 594.873L1546.81 80.4612H1392.3L1409.61 217.724C1391.76 182.56 1328.5 80.4612 1189.28 80.4612C1188.37 80.4012 1034.56 80.4612 1034.56 80.4612L1033.97 830.26L921.345 80.4612L718.984 80.3438L602.476 857.238L602.535 80.4562H408.863L339.043 516.84L271.036 80.4612H77.3008V925.073H229.863V517.972L299.261 925.063H380.368L448.791 517.972V925.063H742.905L760.752 795.099H879.165L896.952 925.063L1185.7 925.24H1185.94V925.063H1186.3V650.9L1221.7 645.744L1294.98 925.24H1444.33L1444.27 925.063H1444.72L1348.55 597.48C1397.28 561.431 1452.31 469.886 1437.67 382.309V382.251C1437.84 383.436 1528.44 925.603 1528.44 925.603L1706.07 925.063L1827.45 159.492V925.065H2115.48V773.161H1978.76V579.456H2115.48V425.239H1978.76V234.438H2115.48ZM778.724 661.163L820.611 300.076L864.103 661.163H778.724ZM1222.19 494.434C1210.45 500.128 1198.21 502.975 1186.29 502.975V231.296C1186.5 231.296 1186.74 231.241 1187.03 231.241C1198.98 231.181 1288.06 234.856 1288.06 365.652C1288.06 434.072 1257.76 477.182 1222.19 494.434M2422.87 773.043V924.946H2141.89V80.3438H2293.18V773.043H2422.87Z" fill="white"/>
</g>
<defs>
<clipPath id="clip0_702_22">
<rect width="2500" height="1006" fill="white"/>
</clipPath>
</defs>
</svg>
